<svg width="511" height="511" viewBox="0 0 511 511" fill="none" xmlns="http://www.w3.org/2000/svg">
<g clip-path="url(#clip0)">
<path d="M407.34 304.666V6.49512H37.7461V313.157C37.7461 335.224 55.6369 353.114 77.7031 353.114H455.788C429.032 353.114 407.34 331.422 407.34 304.666V304.666Z" fill="#6670E3"/>
<path d="M455.788 353.114C429.032 353.114 407.34 331.422 407.34 304.666V226.253H504.236V304.666C504.236 331.422 482.544 353.114 455.788 353.114V353.114Z" fill="#E4EDFB"/>
<path d="M143.013 415.913L65.9253 492.669C59.3639 499.243 50.7519 502.529 42.1437 502.529C33.5316 502.529 24.9234 499.243 18.3504 492.669C5.20418 479.535 5.20418 458.225 18.3504 445.091L93.2079 370.553C105.095 390.022 122.393 405.835 143.013 415.913V415.913Z" fill="#E4EDFB"/>
<path d="M345.41 308.163C345.41 225.543 278.194 158.327 195.574 158.327C112.955 158.327 45.7383 225.543 45.7383 308.163C45.7383 319.59 47.0287 330.721 49.4654 341.426C56.6934 348.646 66.6778 353.114 77.7031 353.114H338.517C342.989 338.916 345.41 323.816 345.41 308.163V308.163Z" fill="#5964E0"/>
<path d="M143.013 415.913L120.838 437.999C101.15 426.611 84.2686 410.888 71.5317 392.128L93.2081 370.553C105.095 390.022 122.393 405.835 143.013 415.913V415.913Z" fill="#BCC8D9"/>
<path d="M315.441 308.163C315.441 374.362 261.777 428.03 195.574 428.03C129.372 428.03 75.707 374.362 75.707 308.163C75.707 241.961 129.372 188.292 195.574 188.292C261.777 188.292 315.441 241.961 315.441 308.163Z" fill="#E4EDFB"/>
<path d="M275.484 308.163C275.484 352.296 239.707 388.073 195.574 388.073C151.442 388.073 115.66 352.296 115.66 308.163C115.66 264.027 151.442 228.249 195.574 228.249C239.707 228.249 275.484 264.027 275.484 308.163Z" fill="#92D8FF"/>
<path d="M437.309 334.631V226.253H407.34V304.666C407.34 331.422 429.032 353.114 455.788 353.114C445.597 353.114 437.309 344.822 437.309 334.631V334.631Z" fill="#BCC8D9"/>
<path d="M195.574 258.218C234.584 258.218 267.048 286.175 274.061 323.146C274.985 318.288 275.484 313.286 275.484 308.163C275.484 264.027 239.707 228.249 195.574 228.249C151.438 228.249 115.66 264.027 115.66 308.163C115.66 313.286 116.163 318.288 117.087 323.146C124.101 286.175 156.565 258.218 195.574 258.218V258.218Z" fill="#4ABEF0"/>
<path d="M67.7148 28.9707H82.6973V43.9531H67.7148V28.9707Z" fill="white"/>
<path d="M360.393 28.9707H375.375V43.9531H360.393V28.9707Z" fill="white"/>
<path d="M375.375 314.155H360.393V299.173H375.375V314.155ZM375.375 284.187H360.393V269.204H375.375V284.187ZM375.375 254.222H360.393V239.239H375.375V254.222ZM375.375 224.253H360.393V209.271H375.375V224.253Z" fill="white"/>
<path d="M106.034 156.83C81.8747 156.83 62.2217 137.173 62.2217 113.013H77.2041C77.2041 128.912 90.1359 141.844 106.034 141.844C121.933 141.844 134.869 128.912 134.869 113.013V54.4404H149.851V113.013C149.851 137.173 130.194 156.83 106.034 156.83Z" fill="white"/>
<path d="M215.688 156.83C188.148 156.83 165.742 134.424 165.742 106.885V100.526C165.742 72.986 188.148 50.5806 215.688 50.5806C243.227 50.5806 265.633 72.986 265.633 100.526V106.885C265.633 134.424 243.227 156.83 215.688 156.83V156.83ZM215.688 65.5669C196.409 65.5669 180.729 81.2511 180.729 100.526V106.885C180.729 126.159 196.409 141.844 215.688 141.844C234.966 141.844 250.65 126.159 250.65 106.885V100.526C250.65 81.2511 234.966 65.5669 215.688 65.5669Z" fill="white"/>
<path d="M329.2 111.879H279.979V51.9453H329.2C345.722 51.9453 359.165 65.3878 359.165 81.9102C359.165 98.4365 345.722 111.879 329.2 111.879ZM294.966 96.8926H329.2C337.461 96.8926 344.182 90.1714 344.182 81.9102C344.182 73.649 337.461 66.9277 329.2 66.9277H294.966V96.8926Z" fill="white"/>
<path d="M329.2 156.83H279.979V96.8926H329.2C345.722 96.8926 359.165 110.339 359.165 126.861C359.165 143.384 345.722 156.83 329.2 156.83ZM294.966 141.844H329.2C337.461 141.844 344.182 135.123 344.182 126.861C344.182 118.6 337.461 111.879 329.2 111.879H294.966V141.844Z" fill="white"/>
<path d="M220.545 274.697H235.531V289.684H220.545V274.697Z" fill="white"/>
<path d="M233.531 303.668H248.518V318.65H233.531V303.668Z" fill="white"/>
<path d="M282.978 308.163C282.978 259.968 243.769 220.76 195.574 220.76C192.982 220.76 190.366 220.873 187.8 221.099L189.118 236.023C191.247 235.836 193.418 235.742 195.574 235.742C235.508 235.742 267.995 268.229 267.995 308.163C267.995 348.097 235.508 380.584 195.574 380.584C182.081 380.584 168.919 376.849 157.512 369.789L149.625 382.526C163.403 391.056 179.294 395.566 195.574 395.566C243.769 395.566 282.978 356.358 282.978 308.163Z" fill="black"/>
<path d="M175.789 238.475L171.707 224.058C134.296 234.655 108.171 269.239 108.171 308.159C108.171 332.623 118.526 356.132 136.584 372.654L146.697 361.602C131.734 347.91 123.153 328.432 123.153 308.163C123.153 275.91 144.799 247.255 175.789 238.475Z" fill="black"/>
<path d="M45.2393 13.9844H232.533V-0.998047H30.2568V191.29H45.2393V13.9844Z" fill="black"/>
<path d="M414.833 218.76V-0.998047H247.516V13.9844H399.851V304.666C399.851 320.826 406.747 335.399 417.741 345.621H317.309C320.962 333.773 322.935 321.192 322.935 308.163C322.935 276.116 310.989 245.497 289.305 221.933L278.28 232.081C297.414 252.869 307.952 279.886 307.952 308.163C307.952 370.124 257.539 420.537 195.574 420.537C133.609 420.537 83.2001 370.124 83.2001 308.163C83.2001 246.198 133.609 195.785 195.574 195.785C222.136 195.785 247.909 205.224 268.147 222.358L277.831 210.924C254.888 191.501 225.676 180.803 195.574 180.803C125.348 180.803 68.2138 237.933 68.2138 308.163C68.2138 321.103 70.1592 333.598 73.7655 345.372C57.7148 343.422 45.2392 329.723 45.2392 313.157V206.273H30.2568V313.157C30.2568 339.317 51.5433 360.604 77.7031 360.604H79.5198C80.8571 363.559 82.3112 366.448 83.8629 369.274L13.0482 439.793C5.27825 447.563 0.997559 457.894 0.997559 468.88C0.997559 479.87 5.27825 490.202 13.0482 497.972C21.0677 505.991 31.6057 510.003 42.1398 510.003C52.67 510.003 63.2041 505.995 71.2158 497.983L144.627 424.876C160.237 431.715 177.469 435.524 195.574 435.524C247.118 435.524 291.605 404.744 311.629 360.604H463.071L463.09 360.112C490.494 356.522 511.726 333.036 511.726 304.666V218.76H414.833ZM60.631 487.375C50.4322 497.578 33.8396 497.574 23.6408 487.375C18.7012 482.436 15.98 475.867 15.98 468.88C15.98 461.894 18.7012 455.325 23.6291 450.397L92.011 382.307C102.3 396.674 115.415 408.705 130.588 417.711L60.631 487.375ZM496.743 304.666C496.743 326.947 478.852 345.118 456.685 345.598L455.461 345.613C433.028 345.434 414.833 327.138 414.833 304.666V233.742H496.743V304.666Z" fill="black"/>
</g>
<defs>
<clipPath id="clip0">
<rect width="511" height="511" fill="white"/>
</clipPath>
</defs>
</svg>
